# xmcd
#
# Track frame offsets:
#	150
#	11964
#	28283
#	45289
#	58562
#	78604
#	93953
#	113797
#	140363
#	160402
#
# Disc length: 2446 seconds
#
# Revision: 0
# Processed by: cddbd v1.4PL0 Copyright (c) Steve Scherf et al.
# Submitted via: dBpowerAMP V4.0
#
DISCID=7e098c0a
DTITLE=P.D. Riches and the Welcome Stranger - measure
DYEAR=2001
DGENRE=Country
TTITLE0=Shoes Lying In The Hall
TTITLE1=Black and White
TTITLE2=No Emotion
TTITLE3=Ballad From The Underground
TTITLE4='Plane Flies West
TTITLE5=Picture Show
TTITLE6=Set The Moon
TTITLE7=Measure
TTITLE8=This Time Around
TTITLE9=Promised Land
EXTD=
EXTT0=
EXTT1=
EXTT2=
EXTT3=
EXTT4=
EXTT5=
EXTT6=
EXTT7=
EXTT8=
EXTT9=
PLAYORDER=
